PathFileType	4	(X/Y/Z)	8_coords_data.trc
DataRate	CameraRate	NumFrames	NumMarkers	Units	OrigDataRate	OrigDataStartFrame	OrigNumFrames
30.0	30.0	9	21	m	30.0	42	62
Frame#	Time	THUMB_TIP	THUMB_IP	THUMB_MCP	THUMB_CMC	INDEX_TIP	INDEX_DIP	INDEX_PIP	INDEX_MCP	MIDDLE_TIP	MIDDLE_DIP	MIDDLE_PIP	MIDDLE_MCP	RING_TIP	RING_DIP	RING_PIP	RING_MCP	PINKY_TIP	PINKY_DIP	PINKY_PIP	PINKY_MCP	WRIST
X1	Y1	Z1	X2	Y2	Z2	X3	Y3	Z3	X4	Y4	Z4	X5	Y5	Z5	X6	Y6	Z6	X7	Y7	Z7	X8	Y8	Z8	X9	Y9	Z9	X10	Y10	Z10	X11	Y11	Z11	X12	Y12	Z12	X13	Y13	Z13	X14	Y14	Z14	X15	Y15	Z15	X16	Y16	Z16	X17	Y17	Z17	X18	Y18	Z18	X19	Y19	Z19	X20	Y20	Z20	X21	Y21	Z21
40	1.3666666666666607	0.4956584608384166	-0.018710432216949457	-0.16987635579071608	0.48726474545848353	-0.023940874442728743	-0.14913538145864919	0.47634626076512154	-0.02999584377624054	-0.12062320794677789	0.4736753939854008	-0.033218562922583295	-0.07621182931529669	0.5753726802728372	0.01731102437574661	-0.16837772288624542	0.5600197509876015	0.014956142555202723	-0.15906417930853972	0.5387303573927263	0.012740885423625614	-0.1458784222501265	0.5078358832597468	-1.771016685825355e-05	-0.11948929947946318	0.5958146933463315	0.034436516559149144	-0.1425415266419971	0.5798095562716	0.03027000514314404	-0.13516075636787558	0.5536709281238216	0.026517753557080415	-0.1228277811961237	0.5182717545231165	0.009411221840706196	-0.10160484544199588	0.6025987815615209	0.03296400316520842	-0.10949302736510824	0.5858702915831013	0.0306904842009027	-0.10316936271865068	0.5625667107502209	0.027773476919644158	-0.0948859957772134	0.5286776487020393	0.009059624549679346	-0.08322220407084019	0.6036036858002822	0.014467498099192455	-0.06560007092344455	0.586603089937905	0.012973242534527918	-0.06427835210630256	0.5656949404310849	0.011268542770152323	-0.06340927103194854	0.530887629672355	0.001817839856206982	-0.06354632276508748	0.462283081001861	-0.023011742144276925	-0.051989820119430985
41	1.3999999999999937	0.49811145872610774	-0.019316246751493238	-0.16910193420023578	0.48872260387315836	-0.02442427639506939	-0.14876090576727294	0.4769151063500745	-0.030275261216195504	-0.12056216503536582	0.47375265570636826	-0.03324240918743282	-0.07616526267897494	0.5768074135363987	0.017570040307756107	-0.166156219800788	0.5611496853014655	0.01532236412196153	-0.15733672444760685	0.539488096860562	0.01315905141821161	-0.14476272359812745	0.5078093116651408	0.00013672106115125704	-0.11945443296809977	0.5964730078059369	0.03301186392935773	-0.14200972144409482	0.5803144405326519	0.02930982565923812	-0.13471618894459284	0.5540243012561277	0.026122461293839105	-0.12254742420764664	0.5182662145779309	0.009425840076748737	-0.1016015416039564	0.6027154877951254	0.03161949672974251	-0.11019132748813759	0.5859836922248255	0.029727266490409354	-0.10375188017372872	0.5626678623482876	0.027276792566399255	-0.09535264010595501	0.5285935087067627	0.009149736743642833	-0.08330817643541444	0.6032665686177296	0.015175463337679829	-0.06887971314112185	0.5863426936330929	0.013631803404926202	-0.0668304280178661	0.5654986240138659	0.011807866723047233	-0.06509548257511755	0.5308395206618733	0.001945785376948006	-0.06355621087758867	0.4622830810018609	-0.023011742144276925	-0.051989820119430985
42	1.4333333333333271	0.5011353047357626	-0.02008271450185395	-0.168022704606397	0.4905403824217981	-0.025031680500661513	-0.14824252875521457	0.4776576808560754	-0.03063738378500902	-0.12046786240156798	0.4738615085154124	-0.033274254490069266	-0.07609978842438497	0.5782518816993949	0.017896006784097196	-0.16378000047306382	0.5623028452083456	0.01573784314568749	-0.1554751485949733	0.5402816595372791	0.013598217199216722	-0.14353784506990488	0.5078287938507497	0.00027518117218416904	-0.11939360530646492	0.5971796782093985	0.03158108106452595	-0.14133772907295986	0.5808721657117356	0.028344148920006473	-0.13415529867438697	0.5544307938446683	0.02571728915448135	-0.12218186927593433	0.5182940516174256	0.009420873903390303	-0.1015733605437184	0.6028778711678074	0.03017943431700265	-0.1107640488834924	0.5861420012587495	0.02869267824080801	-0.10422950874994152	0.5628129337008989	0.026720405914618883	-0.09574159217680045	0.528538961369272	0.009195676817972731	-0.08337633744023965	0.6028253195896037	0.01576026104080752	-0.07204993379190483	0.5860045772273287	0.014174029578972402	-0.06930284512725415	0.565256878295329	0.012237243340927018	-0.06673499250391024	0.530818495304899	0.001996615052911377	-0.06357101395291559	0.4622830810018608	-0.023011742144276925	-0.051989820119430985
43	1.4666666666666603	0.5045186765261683	-0.020956023392634804	-0.1666317500406466	0.4925794251473746	-0.02571672598342134	-0.1475847033573402	0.47850346707009983	-0.031044276752441036	-0.12033943574972944	0.4739880371229297	-0.03332058091233847	-0.0760187934736542	0.5796067896811381	0.01832020029075354	-0.16137327586302963	0.5633950451348146	0.016225180282127716	-0.15357646690498755	0.5410453946811168	0.014072937110000239	-0.1422684694286191	0.5078746604968818	0.00042416721355065246	-0.11931090927967031	0.5978649939013165	0.030289144094183484	-0.14057226256427496	0.581422962243789	0.027488073757327425	-0.13351438753415135	0.5548412761493418	0.025376174272488616	-0.12175159046278189	0.518338148849348	0.009435252575068831	-0.10151408484185159	0.6030292516844368	0.028843471299944246	-0.11119699584239418	0.5862942327613773	0.027737208473872288	-0.10458523932808639	0.5629550305084526	0.02622279128868743	-0.09603140055322623	0.5284981290319427	0.009251986048576688	-0.08340466130113444	0.60229278101014	0.016273391305683393	-0.07501047719948978	0.5855977696234252	0.01463970920175306	-0.07160347300507486	0.5649723209586598	0.012599590481917278	-0.06825074247816099	0.5308104093623358	0.0020262183954363744	-0.0635548879440247	0.462283081001861	-0.023011742144276925	-0.051989820119430985
44	1.4999999999999936	0.5080988215389797	-0.021916151283302487	-0.16495254992999456	0.4947653064181108	-0.026465084029633767	-0.14679973787811365	0.4794362634055167	-0.03147089167735995	-0.12017677166260704	0.474140066434686	-0.033365741275146577	-0.07592465484716043	0.5808501332451603	0.018775359163483385	-0.15905614632057347	0.5644163535935839	0.016707113141024577	-0.15173130879650426	0.5417861626782309	0.014510018795339197	-0.1410048429959324	0.5079746335979901	0.0005464621892782295	-0.11920035533477963	0.5985230304243121	0.029136530705557995	-0.1397643364710832	0.5819649925449226	0.02672659112932707	-0.13283443222761632	0.5552594126823054	0.025064078017061342	-0.12128204700408263	0.5184072673963647	0.009448508494007357	-0.10142704014700499	0.6031889478620872	0.02760995220664142	-0.11149856172776745	0.5864566501749069	0.026848352861476354	-0.10483146486743739	0.5631113502008517	0.025747607708176412	-0.09623115625501732	0.5284831080216178	0.009283304110894952	-0.08340413849433426	0.6017313796683832	0.016635846810062693	-0.07766516389382982	0.5851719945562667	0.014966818763754164	-0.07366502513508061	0.5646820586636402	0.012843223083828237	-0.06960733028402805	0.5308216050763113	0.0020063101318112952	-0.06353160386402207	0.4622830810018609	-0.023011742144276925	-0.051989820119430985
45	1.5333333333333266	0.5116748363112691	-0.02296293444397446	-0.16304957562606376	0.49697143625597284	-0.027262004152595498	-0.1459227537826996	0.48040647931059544	-0.03192699234359042	-0.11998706241779344	0.4742963662459252	-0.033416632104289246	-0.07582443691024138	0.5819126405294254	0.019205026359374378	-0.15699006804551943	0.5653035881894865	0.017130870923660613	-0.15007361956398824	0.5424445544560813	0.01486624069676934	-0.13985863744405824	0.5081068448726578	0.0006175001416880432	-0.11908530869880296	0.5991459873394532	0.028101908830963862	-0.1389703577480509	0.5824908739163605	0.02602566235491044	-0.13216621214154098	0.5556768119368353	0.024745796691483468	-0.12081819143122469	0.5185073302889743	0.009423121001663759	-0.10132990867635017	0.6033638880430913	0.026457768158305583	-0.11169264907698095	0.5866362190270406	0.026007955967618623	-0.10498573038934411	0.5632854095589954	0.02527695389927198	-0.09636103838538673	0.528501263445649	0.009262109577981459	-0.08338765122049407	0.6012224089312367	0.01680187673786837	-0.07987157442312076	0.5847918748958411	0.01511122055264813	-0.07537944430756499	0.5644327354467302	0.012935444577737654	-0.07073364418286504	0.5308577059371236	0.0019190969746338826	-0.06350585545347903	0.4622830810018609	-0.023011742144276925	-0.051989820119430985
46	1.5666666666666598	0.5150485834048354	-0.02403393891350525	-0.1610241020587646	0.499092506475746	-0.028088498663548567	-0.14499400055358663	0.48136931459330723	-0.03240123060235178	-0.11977280286746783	0.47446339303716434	-0.03347145352744274	-0.07571542130261527	0.582764485861282	0.019583169448839866	-0.15527275620001824	0.5660215277276164	0.017505509870754943	-0.14868817697185868	0.5429894736898783	0.015175252870488265	-0.1388849008809072	0.5082563601519265	0.0006687533932243639	-0.1189648509091854	0.5996997738915459	0.027277657447661197	-0.13819360806295367	0.5829645304749934	0.025472671943675418	-0.13150977270298703	0.5560555152969981	0.024504138616141202	-0.12035735613329768	0.5186110255537242	0.009411613276673503	-0.10121907544397318	0.6035182209475535	0.025596108558104014	-0.11173377600650714	0.5867909016103041	0.025384233375507104	-0.10501425990066415	0.5634321623039534	0.024940908013141527	-0.0963914564330538	0.5285273992498335	0.009258413603920213	-0.08333627664721799	0.6008182393695319	0.01686829886204766	-0.08145162726025268	0.5844896678453229	0.015174154184175226	-0.07660316092653208	0.5642351029464429	0.01298039396884998	-0.07152851454725401	0.5308901969016041	0.0018531718425487398	-0.06345475336594358	0.462283081001861	-0.023011742144276925	-0.051989820119430985
47	1.599999999999993	0.5180222594020761	-0.02505503660748898	-0.15903735286105614	0.500998226779764	-0.028879226299657335	-0.1440855005854093	0.4822613921723752	-0.032855126982319294	-0.11955096894820533	0.4746234785365211	-0.03352965494738214	-0.07560671690865428	0.583381602979317	0.019836157955049116	-0.1540228533439403	0.566545050476471	0.017782634345534842	-0.14767355884737804	0.5433956754241299	0.01541353134577661	-0.1381602198613758	0.5084073043391344	0.0006952905412477284	-0.11885158525303163	0.6001479582883752	0.026662998762687296	-0.13750257580785497	0.5833482137433335	0.025080776643494396	-0.13092495037105203	0.556359774464266	0.024357033348951118	-0.11994725066101747	0.5187002386033399	0.009420333311685125	-0.10111105487374739	0.60365243233686	0.02496730047098239	-0.11166333783898041	0.5869218145869471	0.02494871360663775	-0.10494872063211164	0.56355167637295	0.024723625346366518	-0.09634837446851086	0.5285565220760402	0.009267271229281948	-0.08326551823820832	0.600586352167768	0.016821084892755356	-0.08234819351712164	0.5843188222849105	0.015139506600403196	-0.07729450516533098	0.5641262853104446	0.012965470696797321	-0.0719703115714933	0.5309236089022727	0.0017884774372061152	-0.06339473275666763	0.4622830810018608	-0.023011742144276925	-0.051989820119430985
48	1.6333333333333262	0.5204463846627017	-0.025889965218882094	-0.1572606564788635	0.5025805275957008	-0.029535390520853633	-0.1432777374120433	0.4830218580043939	-0.033233363481584455	-0.11934860370854722	0.474766109834613	-0.03357272989848725	-0.07551234642542332	0.5837690314668355	0.01998177706677451	-0.15326385645916196	0.5668776362007985	0.017974145491256976	-0.14704692945110698	0.5436611675354747	0.015607623991834796	-0.13769786577045878	0.5085513522225965	0.0007189887971382758	-0.11874356534193231	0.6004937021223027	0.026274270772550512	-0.13690729638928012	0.5836441584549621	0.02485834887187477	-0.1304197665532359	0.5565932291248056	0.024315983754871318	-0.11958636392734112	0.51878499993447	0.009448363645579327	-0.10099497885852932	0.603779521153573	0.024618024265654403	-0.11144498361056421	0.5870385225345602	0.024722516337863598	-0.10475708060251643	0.5636518772210127	0.02464240298073561	-0.0961991379859563	0.5285924981098237	0.00929206434031804	-0.08316349937626655	0.6005557008344194	0.016657490523270813	-0.08254333175480677	0.5843008503385486	0.015022796981387199	-0.07743377087533643	0.5641193996986356	0.012908778058435488	-0.07204378079536844	0.5309505803391901	0.001750960355908604	-0.0633136045418407	0.4622830810018609	-0.023011742144276925	-0.051989820119430985
